<svg width="53.87" height="43.61" viewBox="0 0 111.73684210526318 91.21804511278197" xmlns="http://www.w3.org/2000/svg">
  <defs>
    <linearGradient id="pandaGradient" gradientUnits="userSpaceOnUse" x1="55.87" y1="0" x2="55.87" y2="91.22">
      <stop class="stop1" offset="0%"></stop>
      <stop class="stop2" offset="100%"></stop>
    </linearGradient>
  </defs>
  <path d="M96.40 43.53c-1.71-11.81-8.74-19.97-20.50-24.63 2.00-1.06 3.30-1.59 3.30-1.59-5.67-2.00-10.58-3.16-14.84-3.69 2.24-1.69 3.73-2.33 3.73-2.33-34.59-4.88-51.64 14.36-52.71 32.27-7.87 0.91-13.38 7.60-13.38 15.70 0 7.03 5.05 12.88 11.72 14.15C14.25 88.34 32.39 101.58 56.03 101.58c22.07 0 40.05-13.20 40.81-29.68 6.68-1.27 11.72-7.12 11.72-14.15 0-7.17-5.24-13.09-12.11-14.21zM15.59 66.78c-4.05-1.05-7.04-4.68-7.04-9.05 0-4.23 2.82-7.77 6.68-8.94 0.09 3.79 1.08 7.41 2.83 10.74a25.18 25.18 0 0 0-2.46 7.25zm62.41 3.13c2.33 2.90 3.69 6.29 3.69 9.92 0 10.65-11.49 19.28-25.66 19.28s-25.66-8.63-25.66-19.28c0-3.63 1.36-7.02 3.69-9.92-7.98-4.83-13.09-12.22-13.09-20.52 0-29.65 35.06-10.76 35.06-10.76s35.06-18.89 35.06 10.76c0 8.30-5.11 15.69-13.09 20.52zm18.48-3.13a25.18 25.18 0 0 0-2.46-7.25c1.74-3.34 2.74-6.95 2.82-10.74 3.86 1.17 6.68 4.71 6.68 8.94 0 4.37-3 8-7.04 9.05z" fill="url(#pandaGradient)"/>
  <path d="M59.78 71.44c0.97 0 1.75-1.61 1.75-3.60 0-1.98-0.78-3.61-1.75-3.61-0.97 0-1.75 1.62-1.75 3.61 0 1.99 0.78 3.60 1.75 3.60M52.27 71.44c0.97 0 1.75-1.61 1.75-3.60 0-1.98-0.78-3.61-1.75-3.61-0.97 0-1.75 1.62-1.75 3.61 0 1.99 0.78 3.60 1.75 3.60" fill="url(#pandaGradient)"/>
  <ellipse cx="71.23" cy="55.59" rx="6.13" ry="7.88" fill="url(#pandaGradient)"/>
  <ellipse cx="40.83" cy="55.59" rx="6.13" ry="7.88" fill="url(#pandaGradient)"/>
  <path d="M56.03 79.55c-8.21 0-16.56-2.23-17.24-1.65-2.50 2.13 5.16 12.15 17.24 12.22 12.08-0.06 19.74-10.09 17.24-12.22-0.68-0.57-9.03 1.65-17.24 1.65" fill="url(#pandaGradient)"/>
</svg>